<svg width="1440" height="98" viewBox="0 0 1440 98" fill="none" xmlns="http://www.w3.org/2000/svg">
<path d="M202.5 23.7415C16.5 -37.2783 -2.83334 80.6272 -76 118L1517 118C1510 99.1483 1442 -41.2666 1336 22.2534C1285.5 52.5153 1213 38.0646 1189.5 28.7026C1123.5 2.40951 1087 13.8027 1053.5 28.7026C1024.5 41.6011 932.5 52.3457 889 32.1753C789.5 -13.9617 756 -2.82987 712.5 18.2846C643 52.0192 578 56.6007 518 22.7495C467 -6.02415 404.5 -0.0709861 356.5 18.7806C303 38.6245 282.5 49.9865 202.5 23.7415Z" fill="white" fill-opacity="0.3"/>
<path d="M93.9514 33.1603C-13.0143 -25.229 -27.6762 82.8995 -57.5 118L1500.5 118C1424.02 1.22109 1312.06 0.71587 1220.09 34.1587C1139.12 63.603 1103.13 39.5844 1060.14 24.1776C982.166 -3.76947 928.684 21.3496 886.697 41.1455C832.714 66.5973 764.736 54.375 722.25 31.1643C642.775 -12.2535 598.29 15.1093 554.304 34.6577C472.33 71.0887 393.855 46.5312 381.859 41.1454C307.383 7.7087 273.394 25.6119 238.905 37.652C167.428 62.6048 108.947 41.3457 93.9514 33.1603Z" fill="white" fill-opacity="0.5"/>
<path d="M149.5 55.092C65.9 35.9332 -5.66667 75.7143 -31 97.9996L1467 98C1408.11 35.2577 1371.14 49.8037 1326.26 67.4621L1326 67.5655C1238.5 101.991 1208.5 84.1179 1168.5 70.0601C1089 42.1203 1060.5 70.5553 1027 79.0408C962 95.5054 920.5 95.8459 860.5 69.5611C778.5 33.6385 761 39.3168 701.5 63.574C573 115.961 558 81.6532 490 60.0813C403.5 32.6405 380.5 56.9601 324.5 72.5545C238.5 96.5029 223 71.9361 149.5 55.092Z" fill="white"/>
</svg>
