<svg width="30" height="30" viewBox="0 0 30 30" fill="none" xmlns="http://www.w3.org/2000/svg">
<g clip-path="url(#clip0_32_7401)">
<path d="M15 0C6.70951 0 0 6.70875 0 15C0 23.2904 6.70875 30 15 30C23.2905 30 30 23.2913 30 15C30 6.70951 23.2913 0 15 0ZM14.5562 22.0206C13.7071 22.0206 13.0556 21.3098 13.0556 20.5003C13.0556 19.671 13.7269 18.98 14.5562 18.98C15.3855 18.98 16.0764 19.671 16.0764 20.5003C16.0764 21.3098 15.4051 22.0206 14.5562 22.0206ZM16.807 14.34C15.7211 15.189 15.7012 15.7813 15.7012 16.808C15.7012 17.1833 15.5038 17.6176 14.5363 17.6176C13.7268 17.6176 13.4504 17.3214 13.4504 16.2947C13.4504 14.5967 14.2007 13.7872 14.7733 13.2936C15.4249 12.7407 16.5306 12.1287 16.5306 11.0625C16.5306 10.1542 15.7408 9.71982 14.7536 9.71982C12.7396 9.71982 13.174 11.2402 12.1078 11.2402C11.5747 11.2402 10.9231 10.8847 10.9231 10.1147C10.9231 9.04857 12.1472 7.46895 14.8128 7.46895C17.3401 7.46895 19.0184 8.87086 19.0184 10.7268C19.0184 12.5828 17.3401 13.9254 16.807 14.34Z" fill="#BFBFBF"/>
</g>
<defs>
<clipPath id="clip0_32_7401">
<rect width="30" height="30" fill="white"/>
</clipPath>
</defs>
</svg>
