<svg width="154" height="48" viewBox="0 0 154 48" fill="none" xmlns="http://www.w3.org/2000/svg">
<g clip-path="url(#clip0_6_20)">
<path d="M31.6126 28.7786C30.7937 27.9259 29.806 27.47 28.7591 27.47C27.7207 27.47 26.7245 27.9175 25.8719 28.7701L23.2041 31.4295C22.9846 31.3113 22.7651 31.2015 22.554 31.0918C22.2501 30.9398 21.9631 30.7963 21.7183 30.6443C19.2193 29.0572 16.9484 26.9888 14.7703 24.3126C13.715 22.9787 13.0058 21.8559 12.4908 20.7162C13.1831 20.083 13.8247 19.4245 14.4495 18.7914C14.6858 18.555 14.9222 18.3102 15.1586 18.0738C16.9315 16.3009 16.9315 14.0046 15.1586 12.2317L12.8539 9.92698C12.5922 9.66527 12.322 9.39512 12.0687 9.12497C11.5622 8.60155 11.0303 8.06124 10.4816 7.5547C9.66269 6.74425 8.68338 6.31369 7.65343 6.31369C6.62347 6.31369 5.62728 6.74425 4.78305 7.5547C4.77461 7.56315 4.77461 7.56315 4.76617 7.57159L1.8958 10.4673C0.815184 11.5479 0.198898 12.8649 0.063822 14.3929C-0.138793 16.8581 0.587243 19.1544 1.14443 20.6571C2.51208 24.3464 4.55511 27.7655 7.60277 31.4295C11.3005 35.8448 15.7496 39.3314 20.8318 41.7881C22.7735 42.7083 25.3653 43.7974 28.261 43.9831C28.4383 43.9916 28.624 44 28.7929 44C30.743 44 32.3808 43.2993 33.6641 41.9063C33.6725 41.8894 33.6894 41.881 33.6978 41.8641C34.1368 41.3322 34.6434 40.851 35.1752 40.3361C35.5383 39.9899 35.9097 39.6269 36.2727 39.247C37.1085 38.3774 37.5475 37.3644 37.5475 36.326C37.5475 35.2791 37.1001 34.2745 36.2474 33.4303L31.6126 28.7786ZM34.6349 37.6683C34.6265 37.6683 34.6265 37.6767 34.6349 37.6683C34.3057 38.0229 33.968 38.3437 33.605 38.6983C33.0562 39.2217 32.499 39.7704 31.9756 40.3867C31.1229 41.2985 30.1183 41.729 28.8013 41.729C28.6747 41.729 28.5396 41.729 28.413 41.7206C25.9056 41.5602 23.5756 40.5809 21.828 39.7451C17.0497 37.4319 12.8539 34.1479 9.36721 29.9858C6.48839 26.5161 4.56355 23.308 3.28877 19.8635C2.50364 17.7614 2.2166 16.1236 2.34324 14.5787C2.42766 13.5909 2.80756 12.772 3.50827 12.0713L6.38708 9.19251C6.80076 8.80416 7.23976 8.5931 7.67031 8.5931C8.20217 8.5931 8.63273 8.91391 8.90288 9.18406C8.91133 9.19251 8.91977 9.20095 8.92821 9.20939C9.44319 9.6906 9.93284 10.1887 10.4478 10.7206C10.7095 10.9907 10.9797 11.2609 11.2498 11.5395L13.5546 13.8442C14.4495 14.7391 14.4495 15.5664 13.5546 16.4613C13.3097 16.7061 13.0734 16.951 12.8285 17.1873C12.1194 17.9134 11.444 18.5888 10.7095 19.2473C10.6926 19.2641 10.6758 19.2726 10.6673 19.2895C9.94128 20.0155 10.0764 20.7247 10.2283 21.2059C10.2368 21.2312 10.2452 21.2565 10.2536 21.2818C10.853 22.7339 11.6973 24.1016 12.9805 25.7309L12.9889 25.7394C15.319 28.6097 17.7757 30.8469 20.4857 32.5607C20.8318 32.7802 21.1864 32.9575 21.5241 33.1264C21.828 33.2783 22.115 33.4218 22.3599 33.5738C22.3936 33.5907 22.4274 33.616 22.4612 33.6329C22.7482 33.7764 23.0184 33.8439 23.297 33.8439C23.9977 33.8439 24.4367 33.4049 24.5802 33.2614L27.4674 30.3742C27.7545 30.0871 28.2104 29.741 28.7422 29.741C29.2656 29.741 29.6962 30.0702 29.9579 30.3573C29.9664 30.3657 29.9664 30.3657 29.9748 30.3742L34.6265 35.0259C35.496 35.887 35.496 36.7734 34.6349 37.6683Z" fill="url(#paint0_linear_6_20)"/>
<path d="M21.617 13.515C23.8288 13.8864 25.8381 14.9333 27.4421 16.5373C29.0462 18.1413 30.0846 20.1506 30.4645 22.3625C30.5573 22.9197 31.0385 23.308 31.5873 23.308C31.6548 23.308 31.7139 23.2996 31.7815 23.2911C32.4062 23.1898 32.8199 22.5989 32.7185 21.9741C32.2627 19.2979 30.9963 16.8581 29.063 14.9248C27.1298 12.9915 24.6899 11.7252 22.0137 11.2693C21.389 11.168 20.8065 11.5817 20.6967 12.198C20.587 12.8143 20.9922 13.4137 21.617 13.515Z" fill="url(#paint1_linear_6_20)"/>
<path d="M39.9536 21.6449C39.2022 17.238 37.1254 13.2279 33.9342 10.0367C30.743 6.84557 26.733 4.76877 22.3261 4.01741C21.7098 3.90766 21.1273 4.32977 21.0175 4.94606C20.9162 5.57078 21.3299 6.1533 21.9546 6.26305C25.8887 6.92999 29.4767 8.79573 32.3302 11.6408C35.1837 14.4943 37.041 18.0822 37.7079 22.0163C37.8008 22.5735 38.282 22.9619 38.8307 22.9619C38.8983 22.9619 38.9574 22.9534 39.0249 22.945C39.6412 22.8521 40.0633 22.2612 39.9536 21.6449Z" fill="url(#paint2_linear_6_20)"/>
</g>
<path d="M60.6016 10.2578V12.0859H54.6641V10.2578H60.6016ZM55.3594 5.625V17H53.0156V5.625H55.3594ZM62.2734 5.625V17H59.9375V5.625H62.2734ZM73.6562 11.0469V11.5859C73.6562 12.4505 73.5391 13.2266 73.3047 13.9141C73.0703 14.6016 72.7396 15.1875 72.3125 15.6719C71.8854 16.151 71.375 16.5182 70.7812 16.7734C70.1927 17.0286 69.5391 17.1562 68.8203 17.1562C68.1068 17.1562 67.4531 17.0286 66.8594 16.7734C66.2708 16.5182 65.7604 16.151 65.3281 15.6719C64.8958 15.1875 64.5599 14.6016 64.3203 13.9141C64.0859 13.2266 63.9688 12.4505 63.9688 11.5859V11.0469C63.9688 10.1771 64.0859 9.40104 64.3203 8.71875C64.5547 8.03125 64.8854 7.44531 65.3125 6.96094C65.7448 6.47656 66.2552 6.10677 66.8438 5.85156C67.4375 5.59635 68.0911 5.46875 68.8047 5.46875C69.5234 5.46875 70.1771 5.59635 70.7656 5.85156C71.3594 6.10677 71.8698 6.47656 72.2969 6.96094C72.7292 7.44531 73.0625 8.03125 73.2969 8.71875C73.5365 9.40104 73.6562 10.1771 73.6562 11.0469ZM71.2891 11.5859V11.0312C71.2891 10.4271 71.2344 9.89583 71.125 9.4375C71.0156 8.97917 70.8542 8.59375 70.6406 8.28125C70.4271 7.96875 70.1667 7.73438 69.8594 7.57812C69.5521 7.41667 69.2005 7.33594 68.8047 7.33594C68.4089 7.33594 68.0573 7.41667 67.75 7.57812C67.4479 7.73438 67.1901 7.96875 66.9766 8.28125C66.7682 8.59375 66.6094 8.97917 66.5 9.4375C66.3906 9.89583 66.3359 10.4271 66.3359 11.0312V11.5859C66.3359 12.1849 66.3906 12.7161 66.5 13.1797C66.6094 13.638 66.7708 14.026 66.9844 14.3438C67.1979 14.6562 67.4583 14.8932 67.7656 15.0547C68.0729 15.2161 68.4245 15.2969 68.8203 15.2969C69.2161 15.2969 69.5677 15.2161 69.875 15.0547C70.1823 14.8932 70.4401 14.6562 70.6484 14.3438C70.8568 14.026 71.0156 13.638 71.125 13.1797C71.2344 12.7161 71.2891 12.1849 71.2891 11.5859ZM79.8984 5.625V17H77.5625V5.625H79.8984ZM83.3984 5.625V7.46094H74.1172V5.625H83.3984ZM92.0469 15.1719V17H86.3203V15.1719H92.0469ZM87.0781 5.625V17H84.7344V5.625H87.0781ZM95.8828 5.625V17H93.5469V5.625H95.8828ZM107.336 5.625V17H104.992L100.422 9.375V17H98.0781V5.625H100.422L105 13.2578V5.625H107.336ZM117.008 15.1719V17H110.953V15.1719H117.008ZM111.719 5.625V17H109.375V5.625H111.719ZM116.219 10.2578V12.0391H110.953V10.2578H116.219ZM117 5.625V7.46094H110.953V5.625H117ZM118.32 15.9141C118.32 15.5807 118.435 15.3021 118.664 15.0781C118.898 14.8542 119.208 14.7422 119.594 14.7422C119.979 14.7422 120.286 14.8542 120.516 15.0781C120.75 15.3021 120.867 15.5807 120.867 15.9141C120.867 16.2474 120.75 16.526 120.516 16.75C120.286 16.974 119.979 17.0859 119.594 17.0859C119.208 17.0859 118.898 16.974 118.664 16.75C118.435 16.526 118.32 16.2474 118.32 15.9141ZM118.32 9.46875C118.32 9.13542 118.435 8.85677 118.664 8.63281C118.898 8.40885 119.208 8.29688 119.594 8.29688C119.979 8.29688 120.286 8.40885 120.516 8.63281C120.75 8.85677 120.867 9.13542 120.867 9.46875C120.867 9.80208 120.75 10.0807 120.516 10.3047C120.286 10.5286 119.979 10.6406 119.594 10.6406C119.208 10.6406 118.898 10.5286 118.664 10.3047C118.435 10.0807 118.32 9.80208 118.32 9.46875ZM60.4375 34.3125V36.2812C60.4375 37.1354 60.3464 37.8724 60.1641 38.4922C59.9818 39.1068 59.7188 39.612 59.375 40.0078C59.0365 40.3984 58.6328 40.6875 58.1641 40.875C57.6953 41.0625 57.1745 41.1562 56.6016 41.1562C56.1432 41.1562 55.7161 41.099 55.3203 40.9844C54.9245 40.8646 54.5677 40.6797 54.25 40.4297C53.9375 40.1797 53.6667 39.8646 53.4375 39.4844C53.2135 39.099 53.0417 38.6406 52.9219 38.1094C52.8021 37.5781 52.7422 36.9688 52.7422 36.2812V34.3125C52.7422 33.4583 52.8333 32.7266 53.0156 32.1172C53.2031 31.5026 53.4661 31 53.8047 30.6094C54.1484 30.2188 54.5547 29.9323 55.0234 29.75C55.4922 29.5625 56.013 29.4688 56.5859 29.4688C57.0443 29.4688 57.4688 29.5286 57.8594 29.6484C58.2552 29.763 58.612 29.9427 58.9297 30.1875C59.2474 30.4323 59.5182 30.7474 59.7422 31.1328C59.9661 31.513 60.138 31.9688 60.2578 32.5C60.3776 33.026 60.4375 33.6302 60.4375 34.3125ZM58.1797 36.5781V34.0078C58.1797 33.5964 58.1562 33.237 58.1094 32.9297C58.0677 32.6224 58.0026 32.362 57.9141 32.1484C57.8255 31.9297 57.7161 31.7526 57.5859 31.6172C57.4557 31.4818 57.3073 31.3828 57.1406 31.3203C56.974 31.2578 56.7891 31.2266 56.5859 31.2266C56.3307 31.2266 56.1042 31.276 55.9062 31.375C55.7135 31.474 55.5495 31.6328 55.4141 31.8516C55.2786 32.0651 55.1745 32.3516 55.1016 32.7109C55.0339 33.0651 55 33.4974 55 34.0078V36.5781C55 36.9896 55.0208 37.3516 55.0625 37.6641C55.1094 37.9766 55.1771 38.2448 55.2656 38.4688C55.3594 38.6875 55.4688 38.8672 55.5938 39.0078C55.724 39.1432 55.8724 39.2422 56.0391 39.3047C56.2109 39.3672 56.3984 39.3984 56.6016 39.3984C56.8516 39.3984 57.0729 39.349 57.2656 39.25C57.4635 39.1458 57.6302 38.9844 57.7656 38.7656C57.9062 38.5417 58.0104 38.25 58.0781 37.8906C58.1458 37.5312 58.1797 37.0938 58.1797 36.5781ZM63.5625 39.2891H63.7109C64.3359 39.2891 64.8724 39.2135 65.3203 39.0625C65.7734 38.9062 66.1458 38.6823 66.4375 38.3906C66.7292 38.099 66.9453 37.7422 67.0859 37.3203C67.2266 36.8932 67.2969 36.4089 67.2969 35.8672V33.7109C67.2969 33.2995 67.2552 32.9375 67.1719 32.625C67.0938 32.3125 66.9792 32.0547 66.8281 31.8516C66.6823 31.6432 66.5104 31.487 66.3125 31.3828C66.1198 31.2786 65.9062 31.2266 65.6719 31.2266C65.4219 31.2266 65.2005 31.2891 65.0078 31.4141C64.8151 31.5339 64.651 31.6979 64.5156 31.9062C64.3854 32.1146 64.2839 32.3542 64.2109 32.625C64.1432 32.8906 64.1094 33.1693 64.1094 33.4609C64.1094 33.7526 64.1432 34.0312 64.2109 34.2969C64.2786 34.5573 64.3802 34.7891 64.5156 34.9922C64.651 35.1901 64.8203 35.349 65.0234 35.4688C65.2266 35.5833 65.4661 35.6406 65.7422 35.6406C66.0078 35.6406 66.2448 35.5911 66.4531 35.4922C66.6667 35.388 66.8464 35.2526 66.9922 35.0859C67.1432 34.9193 67.2578 34.7344 67.3359 34.5312C67.4193 34.3281 67.4609 34.1224 67.4609 33.9141L68.2031 34.3203C68.2031 34.6849 68.125 35.0443 67.9688 35.3984C67.8125 35.7526 67.5938 36.0755 67.3125 36.3672C67.0365 36.6536 66.7161 36.8828 66.3516 37.0547C65.987 37.2266 65.5964 37.3125 65.1797 37.3125C64.6484 37.3125 64.1771 37.2161 63.7656 37.0234C63.3542 36.8255 63.0052 36.5547 62.7188 36.2109C62.4375 35.862 62.224 35.4557 62.0781 34.9922C61.9323 34.5286 61.8594 34.026 61.8594 33.4844C61.8594 32.9323 61.9479 32.4141 62.125 31.9297C62.3073 31.4453 62.5651 31.0182 62.8984 30.6484C63.237 30.2786 63.6406 29.9896 64.1094 29.7812C64.5833 29.5677 65.1094 29.4609 65.6875 29.4609C66.2656 29.4609 66.7917 29.5729 67.2656 29.7969C67.7396 30.0208 68.1458 30.3385 68.4844 30.75C68.8229 31.1562 69.0833 31.6432 69.2656 32.2109C69.4531 32.7786 69.5469 33.4089 69.5469 34.1016V34.8828C69.5469 35.6224 69.4661 36.3099 69.3047 36.9453C69.1484 37.5807 68.9115 38.1562 68.5938 38.6719C68.2812 39.1823 67.8906 39.6198 67.4219 39.9844C66.9583 40.349 66.4193 40.6276 65.8047 40.8203C65.1901 41.013 64.5026 41.1094 63.7422 41.1094H63.5625V39.2891ZM78.8125 34.3125V36.2812C78.8125 37.1354 78.7214 37.8724 78.5391 38.4922C78.3568 39.1068 78.0938 39.612 77.75 40.0078C77.4115 40.3984 77.0078 40.6875 76.5391 40.875C76.0703 41.0625 75.5495 41.1562 74.9766 41.1562C74.5182 41.1562 74.0911 41.099 73.6953 40.9844C73.2995 40.8646 72.9427 40.6797 72.625 40.4297C72.3125 40.1797 72.0417 39.8646 71.8125 39.4844C71.5885 39.099 71.4167 38.6406 71.2969 38.1094C71.1771 37.5781 71.1172 36.9688 71.1172 36.2812V34.3125C71.1172 33.4583 71.2083 32.7266 71.3906 32.1172C71.5781 31.5026 71.8411 31 72.1797 30.6094C72.5234 30.2188 72.9297 29.9323 73.3984 29.75C73.8672 29.5625 74.388 29.4688 74.9609 29.4688C75.4193 29.4688 75.8438 29.5286 76.2344 29.6484C76.6302 29.763 76.987 29.9427 77.3047 30.1875C77.6224 30.4323 77.8932 30.7474 78.1172 31.1328C78.3411 31.513 78.513 31.9688 78.6328 32.5C78.7526 33.026 78.8125 33.6302 78.8125 34.3125ZM76.5547 36.5781V34.0078C76.5547 33.5964 76.5312 33.237 76.4844 32.9297C76.4427 32.6224 76.3776 32.362 76.2891 32.1484C76.2005 31.9297 76.0911 31.7526 75.9609 31.6172C75.8307 31.4818 75.6823 31.3828 75.5156 31.3203C75.349 31.2578 75.1641 31.2266 74.9609 31.2266C74.7057 31.2266 74.4792 31.276 74.2812 31.375C74.0885 31.474 73.9245 31.6328 73.7891 31.8516C73.6536 32.0651 73.5495 32.3516 73.4766 32.7109C73.4089 33.0651 73.375 33.4974 73.375 34.0078V36.5781C73.375 36.9896 73.3958 37.3516 73.4375 37.6641C73.4844 37.9766 73.5521 38.2448 73.6406 38.4688C73.7344 38.6875 73.8438 38.8672 73.9688 39.0078C74.099 39.1432 74.2474 39.2422 74.4141 39.3047C74.5859 39.3672 74.7734 39.3984 74.9766 39.3984C75.2266 39.3984 75.4479 39.349 75.6406 39.25C75.8385 39.1458 76.0052 38.9844 76.1406 38.7656C76.2812 38.5417 76.3854 38.25 76.4531 37.8906C76.5208 37.5312 76.5547 37.0938 76.5547 36.5781ZM81.9375 39.2891H82.0859C82.7109 39.2891 83.2474 39.2135 83.6953 39.0625C84.1484 38.9062 84.5208 38.6823 84.8125 38.3906C85.1042 38.099 85.3203 37.7422 85.4609 37.3203C85.6016 36.8932 85.6719 36.4089 85.6719 35.8672V33.7109C85.6719 33.2995 85.6302 32.9375 85.5469 32.625C85.4688 32.3125 85.3542 32.0547 85.2031 31.8516C85.0573 31.6432 84.8854 31.487 84.6875 31.3828C84.4948 31.2786 84.2812 31.2266 84.0469 31.2266C83.7969 31.2266 83.5755 31.2891 83.3828 31.4141C83.1901 31.5339 83.026 31.6979 82.8906 31.9062C82.7604 32.1146 82.6589 32.3542 82.5859 32.625C82.5182 32.8906 82.4844 33.1693 82.4844 33.4609C82.4844 33.7526 82.5182 34.0312 82.5859 34.2969C82.6536 34.5573 82.7552 34.7891 82.8906 34.9922C83.026 35.1901 83.1953 35.349 83.3984 35.4688C83.6016 35.5833 83.8411 35.6406 84.1172 35.6406C84.3828 35.6406 84.6198 35.5911 84.8281 35.4922C85.0417 35.388 85.2214 35.2526 85.3672 35.0859C85.5182 34.9193 85.6328 34.7344 85.7109 34.5312C85.7943 34.3281 85.8359 34.1224 85.8359 33.9141L86.5781 34.3203C86.5781 34.6849 86.5 35.0443 86.3438 35.3984C86.1875 35.7526 85.9688 36.0755 85.6875 36.3672C85.4115 36.6536 85.0911 36.8828 84.7266 37.0547C84.362 37.2266 83.9714 37.3125 83.5547 37.3125C83.0234 37.3125 82.5521 37.2161 82.1406 37.0234C81.7292 36.8255 81.3802 36.5547 81.0938 36.2109C80.8125 35.862 80.599 35.4557 80.4531 34.9922C80.3073 34.5286 80.2344 34.026 80.2344 33.4844C80.2344 32.9323 80.3229 32.4141 80.5 31.9297C80.6823 31.4453 80.9401 31.0182 81.2734 30.6484C81.612 30.2786 82.0156 29.9896 82.4844 29.7812C82.9583 29.5677 83.4844 29.4609 84.0625 29.4609C84.6406 29.4609 85.1667 29.5729 85.6406 29.7969C86.1146 30.0208 86.5208 30.3385 86.8594 30.75C87.1979 31.1562 87.4583 31.6432 87.6406 32.2109C87.8281 32.7786 87.9219 33.4089 87.9219 34.1016V34.8828C87.9219 35.6224 87.8411 36.3099 87.6797 36.9453C87.5234 37.5807 87.2865 38.1562 86.9688 38.6719C86.6562 39.1823 86.2656 39.6198 85.7969 39.9844C85.3333 40.349 84.7943 40.6276 84.1797 40.8203C83.5651 41.013 82.8776 41.1094 82.1172 41.1094H81.9375V39.2891ZM89.7344 39.9141C89.7344 39.5807 89.849 39.3021 90.0781 39.0781C90.3125 38.8542 90.6224 38.7422 91.0078 38.7422C91.3932 38.7422 91.7005 38.8542 91.9297 39.0781C92.1641 39.3021 92.2812 39.5807 92.2812 39.9141C92.2812 40.2474 92.1641 40.526 91.9297 40.75C91.7005 40.974 91.3932 41.0859 91.0078 41.0859C90.6224 41.0859 90.3125 40.974 90.0781 40.75C89.849 40.526 89.7344 40.2474 89.7344 39.9141ZM99.9766 29.5078H100.305V31.3047H100.172C99.5781 31.3047 99.0495 31.3932 98.5859 31.5703C98.1224 31.7474 97.7292 32 97.4062 32.3281C97.0885 32.651 96.8438 33.0417 96.6719 33.5C96.5052 33.9583 96.4219 34.4714 96.4219 35.0391V36.9297C96.4219 37.3359 96.4609 37.6953 96.5391 38.0078C96.6224 38.3151 96.7396 38.5729 96.8906 38.7812C97.0469 38.9844 97.2292 39.138 97.4375 39.2422C97.6458 39.3411 97.8802 39.3906 98.1406 39.3906C98.3854 39.3906 98.6068 39.3385 98.8047 39.2344C99.0078 39.1302 99.1797 38.9844 99.3203 38.7969C99.4661 38.6042 99.5755 38.3802 99.6484 38.125C99.7266 37.8646 99.7656 37.5807 99.7656 37.2734C99.7656 36.9661 99.7266 36.6823 99.6484 36.4219C99.5755 36.1615 99.4661 35.9375 99.3203 35.75C99.1745 35.5573 98.9974 35.4089 98.7891 35.3047C98.5807 35.2005 98.3464 35.1484 98.0859 35.1484C97.7318 35.1484 97.4193 35.2318 97.1484 35.3984C96.8828 35.5599 96.6745 35.7682 96.5234 36.0234C96.3724 36.2786 96.2917 36.5469 96.2812 36.8281L95.6016 36.3906C95.6172 35.9896 95.7005 35.6094 95.8516 35.25C96.0078 34.8906 96.2214 34.5729 96.4922 34.2969C96.7682 34.0156 97.099 33.7969 97.4844 33.6406C97.8698 33.4792 98.3047 33.3984 98.7891 33.3984C99.3203 33.3984 99.7865 33.5 100.188 33.7031C100.594 33.9062 100.932 34.1849 101.203 34.5391C101.474 34.8932 101.677 35.3021 101.812 35.7656C101.948 36.2292 102.016 36.724 102.016 37.25C102.016 37.8021 101.924 38.3151 101.742 38.7891C101.565 39.263 101.307 39.6771 100.969 40.0312C100.635 40.3854 100.234 40.6615 99.7656 40.8594C99.2969 41.0573 98.7708 41.1562 98.1875 41.1562C97.5833 41.1562 97.0339 41.0469 96.5391 40.8281C96.0495 40.6042 95.6276 40.2917 95.2734 39.8906C94.9193 39.4896 94.6458 39.013 94.4531 38.4609C94.2656 37.9089 94.1719 37.3047 94.1719 36.6484V35.7734C94.1719 34.8568 94.3047 34.0182 94.5703 33.2578C94.8411 32.4922 95.2292 31.8307 95.7344 31.2734C96.2396 30.7109 96.849 30.276 97.5625 29.9688C98.276 29.6615 99.0807 29.5078 99.9766 29.5078ZM111.328 36.75V38.5156H103.133L103.023 37.1484L107.766 29.625H109.555L107.617 32.8672L105.258 36.75H111.328ZM110.039 29.625V41H107.789V29.625H110.039ZM114.852 34.3359H116.055C116.44 34.3359 116.758 34.2708 117.008 34.1406C117.258 34.0052 117.443 33.8177 117.562 33.5781C117.688 33.3333 117.75 33.0495 117.75 32.7266C117.75 32.4349 117.693 32.1771 117.578 31.9531C117.469 31.724 117.299 31.5469 117.07 31.4219C116.841 31.2917 116.552 31.2266 116.203 31.2266C115.927 31.2266 115.672 31.2812 115.438 31.3906C115.203 31.5 115.016 31.6536 114.875 31.8516C114.734 32.0495 114.664 32.2891 114.664 32.5703H112.406C112.406 31.9453 112.573 31.401 112.906 30.9375C113.245 30.474 113.698 30.112 114.266 29.8516C114.833 29.5911 115.458 29.4609 116.141 29.4609C116.911 29.4609 117.586 29.5859 118.164 29.8359C118.742 30.0807 119.193 30.4427 119.516 30.9219C119.839 31.401 120 31.9948 120 32.7031C120 33.0625 119.917 33.4115 119.75 33.75C119.583 34.0833 119.344 34.3854 119.031 34.6562C118.724 34.9219 118.349 35.1354 117.906 35.2969C117.464 35.4531 116.966 35.5312 116.414 35.5312H114.852V34.3359ZM114.852 36.0469V34.8828H116.414C117.034 34.8828 117.578 34.9531 118.047 35.0938C118.516 35.2344 118.909 35.4375 119.227 35.7031C119.544 35.9635 119.784 36.2734 119.945 36.6328C120.107 36.987 120.188 37.3802 120.188 37.8125C120.188 38.3438 120.086 38.8177 119.883 39.2344C119.68 39.6458 119.393 39.9948 119.023 40.2812C118.659 40.5677 118.232 40.7865 117.742 40.9375C117.253 41.0833 116.719 41.1562 116.141 41.1562C115.661 41.1562 115.19 41.0911 114.727 40.9609C114.268 40.8255 113.852 40.625 113.477 40.3594C113.107 40.0885 112.81 39.75 112.586 39.3438C112.367 38.9323 112.258 38.4453 112.258 37.8828H114.516C114.516 38.1745 114.589 38.4349 114.734 38.6641C114.88 38.8932 115.081 39.0729 115.336 39.2031C115.596 39.3333 115.885 39.3984 116.203 39.3984C116.562 39.3984 116.87 39.3333 117.125 39.2031C117.385 39.0677 117.583 38.8802 117.719 38.6406C117.859 38.3958 117.93 38.112 117.93 37.7891C117.93 37.3724 117.854 37.0391 117.703 36.7891C117.552 36.5339 117.336 36.3464 117.055 36.2266C116.773 36.1068 116.44 36.0469 116.055 36.0469H114.852ZM121.938 39.9141C121.938 39.5807 122.052 39.3021 122.281 39.0781C122.516 38.8542 122.826 38.7422 123.211 38.7422C123.596 38.7422 123.904 38.8542 124.133 39.0781C124.367 39.3021 124.484 39.5807 124.484 39.9141C124.484 40.2474 124.367 40.526 124.133 40.75C123.904 40.974 123.596 41.0859 123.211 41.0859C122.826 41.0859 122.516 40.974 122.281 40.75C122.052 40.526 121.938 40.2474 121.938 39.9141ZM134.039 37.8828C134.039 38.5964 133.872 39.1979 133.539 39.6875C133.206 40.1719 132.747 40.5391 132.164 40.7891C131.586 41.0339 130.93 41.1562 130.195 41.1562C129.461 41.1562 128.802 41.0339 128.219 40.7891C127.635 40.5391 127.174 40.1719 126.836 39.6875C126.497 39.1979 126.328 38.5964 126.328 37.8828C126.328 37.4036 126.424 36.9714 126.617 36.5859C126.81 36.1953 127.078 35.862 127.422 35.5859C127.771 35.3047 128.18 35.0911 128.648 34.9453C129.117 34.7943 129.628 34.7188 130.18 34.7188C130.919 34.7188 131.581 34.849 132.164 35.1094C132.747 35.3698 133.206 35.737 133.539 36.2109C133.872 36.6849 134.039 37.2422 134.039 37.8828ZM131.773 37.7344C131.773 37.3854 131.706 37.0859 131.57 36.8359C131.44 36.5807 131.255 36.3854 131.016 36.25C130.776 36.1146 130.497 36.0469 130.18 36.0469C129.862 36.0469 129.583 36.1146 129.344 36.25C129.104 36.3854 128.917 36.5807 128.781 36.8359C128.651 37.0859 128.586 37.3854 128.586 37.7344C128.586 38.0781 128.651 38.375 128.781 38.625C128.917 38.875 129.104 39.0677 129.344 39.2031C129.589 39.3333 129.872 39.3984 130.195 39.3984C130.518 39.3984 130.797 39.3333 131.031 39.2031C131.271 39.0677 131.453 38.875 131.578 38.625C131.708 38.375 131.773 38.0781 131.773 37.7344ZM133.797 32.6406C133.797 33.2188 133.643 33.7318 133.336 34.1797C133.029 34.6224 132.602 34.9688 132.055 35.2188C131.513 35.4688 130.893 35.5938 130.195 35.5938C129.492 35.5938 128.867 35.4688 128.32 35.2188C127.773 34.9688 127.346 34.6224 127.039 34.1797C126.732 33.7318 126.578 33.2188 126.578 32.6406C126.578 31.9531 126.732 31.375 127.039 30.9062C127.352 30.4323 127.779 30.0729 128.32 29.8281C128.867 29.5833 129.487 29.4609 130.18 29.4609C130.883 29.4609 131.505 29.5833 132.047 29.8281C132.594 30.0729 133.021 30.4323 133.328 30.9062C133.641 31.375 133.797 31.9531 133.797 32.6406ZM131.547 32.7422C131.547 32.4349 131.492 32.1693 131.383 31.9453C131.273 31.7161 131.117 31.5391 130.914 31.4141C130.716 31.2891 130.471 31.2266 130.18 31.2266C129.898 31.2266 129.656 31.2865 129.453 31.4062C129.255 31.526 129.102 31.7005 128.992 31.9297C128.888 32.1536 128.836 32.4245 128.836 32.7422C128.836 33.0495 128.888 33.3203 128.992 33.5547C129.102 33.7839 129.258 33.9635 129.461 34.0938C129.664 34.224 129.909 34.2891 130.195 34.2891C130.482 34.2891 130.724 34.224 130.922 34.0938C131.125 33.9635 131.279 33.7839 131.383 33.5547C131.492 33.3203 131.547 33.0495 131.547 32.7422ZM143.227 37.8828C143.227 38.5964 143.06 39.1979 142.727 39.6875C142.393 40.1719 141.935 40.5391 141.352 40.7891C140.773 41.0339 140.117 41.1562 139.383 41.1562C138.648 41.1562 137.99 41.0339 137.406 40.7891C136.823 40.5391 136.362 40.1719 136.023 39.6875C135.685 39.1979 135.516 38.5964 135.516 37.8828C135.516 37.4036 135.612 36.9714 135.805 36.5859C135.997 36.1953 136.266 35.862 136.609 35.5859C136.958 35.3047 137.367 35.0911 137.836 34.9453C138.305 34.7943 138.815 34.7188 139.367 34.7188C140.107 34.7188 140.768 34.849 141.352 35.1094C141.935 35.3698 142.393 35.737 142.727 36.2109C143.06 36.6849 143.227 37.2422 143.227 37.8828ZM140.961 37.7344C140.961 37.3854 140.893 37.0859 140.758 36.8359C140.628 36.5807 140.443 36.3854 140.203 36.25C139.964 36.1146 139.685 36.0469 139.367 36.0469C139.049 36.0469 138.771 36.1146 138.531 36.25C138.292 36.3854 138.104 36.5807 137.969 36.8359C137.839 37.0859 137.773 37.3854 137.773 37.7344C137.773 38.0781 137.839 38.375 137.969 38.625C138.104 38.875 138.292 39.0677 138.531 39.2031C138.776 39.3333 139.06 39.3984 139.383 39.3984C139.706 39.3984 139.984 39.3333 140.219 39.2031C140.458 39.0677 140.641 38.875 140.766 38.625C140.896 38.375 140.961 38.0781 140.961 37.7344ZM142.984 32.6406C142.984 33.2188 142.831 33.7318 142.523 34.1797C142.216 34.6224 141.789 34.9688 141.242 35.2188C140.701 35.4688 140.081 35.5938 139.383 35.5938C138.68 35.5938 138.055 35.4688 137.508 35.2188C136.961 34.9688 136.534 34.6224 136.227 34.1797C135.919 33.7318 135.766 33.2188 135.766 32.6406C135.766 31.9531 135.919 31.375 136.227 30.9062C136.539 30.4323 136.966 30.0729 137.508 29.8281C138.055 29.5833 138.674 29.4609 139.367 29.4609C140.07 29.4609 140.693 29.5833 141.234 29.8281C141.781 30.0729 142.208 30.4323 142.516 30.9062C142.828 31.375 142.984 31.9531 142.984 32.6406ZM140.734 32.7422C140.734 32.4349 140.68 32.1693 140.57 31.9453C140.461 31.7161 140.305 31.5391 140.102 31.4141C139.904 31.2891 139.659 31.2266 139.367 31.2266C139.086 31.2266 138.844 31.2865 138.641 31.4062C138.443 31.526 138.289 31.7005 138.18 31.9297C138.076 32.1536 138.023 32.4245 138.023 32.7422C138.023 33.0495 138.076 33.3203 138.18 33.5547C138.289 33.7839 138.445 33.9635 138.648 34.0938C138.852 34.224 139.096 34.2891 139.383 34.2891C139.669 34.2891 139.911 34.224 140.109 34.0938C140.312 33.9635 140.466 33.7839 140.57 33.5547C140.68 33.3203 140.734 33.0495 140.734 32.7422ZM152.477 29.625V30.8359L148.078 41H145.703L150.102 31.3828H144.438V29.625H152.477Z" fill="white"/>
<defs>
<linearGradient id="paint0_linear_6_20" x1="0.0290833" y1="6.31369" x2="45.1472" y2="28.6468" gradientUnits="userSpaceOnUse">
<stop stop-color="#F5C422"/>
<stop offset="0.272366" stop-color="#E9B726"/>
<stop offset="0.661458" stop-color="#FEF686"/>
<stop offset="1" stop-color="#FFDD50"/>
</linearGradient>
<linearGradient id="paint1_linear_6_20" x1="20.6788" y1="11.2541" x2="35.1496" y2="18.4496" gradientUnits="userSpaceOnUse">
<stop stop-color="#F5C422"/>
<stop offset="0.272366" stop-color="#E9B726"/>
<stop offset="0.661458" stop-color="#FEF686"/>
<stop offset="1" stop-color="#FFDD50"/>
</linearGradient>
<linearGradient id="paint2_linear_6_20" x1="21.0023" y1="4.00003" x2="43.7698" y2="15.3242" gradientUnits="userSpaceOnUse">
<stop stop-color="#F5C422"/>
<stop offset="0.272366" stop-color="#E9B726"/>
<stop offset="0.661458" stop-color="#FEF686"/>
<stop offset="1" stop-color="#FFDD50"/>
</linearGradient>
<clipPath id="clip0_6_20">
<rect width="40" height="40" fill="white" transform="translate(0 4)"/>
</clipPath>
</defs>
</svg>
