<svg width="88" height="70" viewBox="0 0 88 70" fill="none" xmlns="http://www.w3.org/2000/svg">
<path d="M47.97 10H12.03C10.4314 10.0021 8.89887 10.6381 7.76848 11.7685C6.6381 12.8989 6.00212 14.4314 6 16.03V63.97C6.00212 65.5686 6.6381 67.1011 7.76848 68.2315C8.89887 69.3619 10.4314 69.9979 12.03 70H47.97C49.5686 69.9979 51.1011 69.3619 52.2315 68.2315C53.3619 67.1011 53.9979 65.5686 54 63.97V16.03C53.9979 14.4314 53.3619 12.8989 52.2315 11.7685C51.1011 10.6381 49.5686 10.0021 47.97 10ZM27.414 53.414L21.414 59.414C21.0389 59.7889 20.5303 59.9996 20 59.9996C19.4697 59.9996 18.9611 59.7889 18.586 59.414L14.586 55.414C14.2217 55.0368 14.0201 54.5316 14.0247 54.0072C14.0292 53.4828 14.2395 52.9812 14.6104 52.6104C14.9812 52.2395 15.4828 52.0292 16.0072 52.0247C16.5316 52.0201 17.0368 52.2217 17.414 52.586L20 55.172L24.586 50.586C24.9632 50.2217 25.4684 50.0201 25.9928 50.0247C26.5172 50.0292 27.0188 50.2395 27.3896 50.6104C27.7605 50.9812 27.9708 51.4828 27.9753 52.0072C27.9799 52.5316 27.7783 53.0368 27.414 53.414ZM27.414 38.414L21.414 44.414C21.0389 44.7889 20.5303 44.9996 20 44.9996C19.4697 44.9996 18.9611 44.7889 18.586 44.414L14.586 40.414C14.2217 40.0368 14.0201 39.5316 14.0247 39.0072C14.0292 38.4828 14.2395 37.9812 14.6104 37.6104C14.9812 37.2395 15.4828 37.0292 16.0072 37.0247C16.5316 37.0201 17.0368 37.2217 17.414 37.586L20 40.172L24.586 35.586C24.9632 35.2217 25.4684 35.0201 25.9928 35.0247C26.5172 35.0292 27.0188 35.2395 27.3896 35.6104C27.7605 35.9812 27.9708 36.4828 27.9753 37.0072C27.9799 37.5316 27.7783 38.0368 27.414 38.414ZM27.414 23.414L21.414 29.414C21.0389 29.7889 20.5303 29.9996 20 29.9996C19.4697 29.9996 18.9611 29.7889 18.586 29.414L14.586 25.414C14.395 25.2295 14.2426 25.0088 14.1378 24.7648C14.033 24.5208 13.9778 24.2584 13.9755 23.9928C13.9732 23.7272 14.0238 23.4639 14.1244 23.2181C14.2249 22.9723 14.3734 22.749 14.5612 22.5612C14.749 22.3734 14.9723 22.2249 15.2181 22.1244C15.4639 22.0238 15.7272 21.9732 15.9928 21.9755C16.2584 21.9778 16.5208 22.033 16.7648 22.1378C17.0088 22.2426 17.2295 22.395 17.414 22.586L20 25.172L24.586 20.586C24.7705 20.395 24.9912 20.2426 25.2352 20.1378C25.4792 20.033 25.7416 19.9778 26.0072 19.9755C26.2728 19.9732 26.5361 20.0238 26.7819 20.1244C27.0277 20.2249 27.251 20.3734 27.4388 20.5612C27.6266 20.749 27.7751 20.9723 27.8756 21.2181C27.9762 21.4639 28.0268 21.7272 28.0245 21.9928C28.0222 22.2584 27.967 22.5208 27.8622 22.7648C27.7574 23.0088 27.605 23.2295 27.414 23.414ZM44 60H34C33.4696 60 32.9609 59.7893 32.5858 59.4142C32.2107 59.0391 32 58.5304 32 58C32 57.4696 32.2107 56.9609 32.5858 56.5858C32.9609 56.2107 33.4696 56 34 56H44C44.5304 56 45.0391 56.2107 45.4142 56.5858C45.7893 56.9609 46 57.4696 46 58C46 58.5304 45.7893 59.0391 45.4142 59.4142C45.0391 59.7893 44.5304 60 44 60ZM44 54H34C33.4696 54 32.9609 53.7893 32.5858 53.4142C32.2107 53.0391 32 52.5304 32 52C32 51.4696 32.2107 50.9609 32.5858 50.5858C32.9609 50.2107 33.4696 50 34 50H44C44.5304 50 45.0391 50.2107 45.4142 50.5858C45.7893 50.9609 46 51.4696 46 52C46 52.5304 45.7893 53.0391 45.4142 53.4142C45.0391 53.7893 44.5304 54 44 54ZM44 45H34C33.4696 45 32.9609 44.7893 32.5858 44.4142C32.2107 44.0391 32 43.5304 32 43C32 42.4696 32.2107 41.9609 32.5858 41.5858C32.9609 41.2107 33.4696 41 34 41H44C44.5304 41 45.0391 41.2107 45.4142 41.5858C45.7893 41.9609 46 42.4696 46 43C46 43.5304 45.7893 44.0391 45.4142 44.4142C45.0391 44.7893 44.5304 45 44 45ZM44 39H34C33.4696 39 32.9609 38.7893 32.5858 38.4142C32.2107 38.0391 32 37.5304 32 37C32 36.4696 32.2107 35.9609 32.5858 35.5858C32.9609 35.2107 33.4696 35 34 35H44C44.5304 35 45.0391 35.2107 45.4142 35.5858C45.7893 35.9609 46 36.4696 46 37C46 37.5304 45.7893 38.0391 45.4142 38.4142C45.0391 38.7893 44.5304 39 44 39ZM44 30H34C33.4696 30 32.9609 29.7893 32.5858 29.4142C32.2107 29.0391 32 28.5304 32 28C32 27.4696 32.2107 26.9609 32.5858 26.5858C32.9609 26.2107 33.4696 26 34 26H44C44.5304 26 45.0391 26.2107 45.4142 26.5858C45.7893 26.9609 46 27.4696 46 28C46 28.5304 45.7893 29.0391 45.4142 29.4142C45.0391 29.7893 44.5304 30 44 30ZM44 24H34C33.4696 24 32.9609 23.7893 32.5858 23.4142C32.2107 23.0391 32 22.5304 32 22C32 21.4696 32.2107 20.9609 32.5858 20.5858C32.9609 20.2107 33.4696 20 34 20H44C44.5304 20 45.0391 20.2107 45.4142 20.5858C45.7893 20.9609 46 21.4696 46 22C46 22.5304 45.7893 23.0391 45.4142 23.4142C45.0391 23.7893 44.5304 24 44 24Z" fill="white"/>
<rect x="64" width="24" height="24" rx="12" fill="white"/>
<path d="M77.2539 7.45117V16H75.5664V9.39648L73.5391 10.041V8.71094L77.0723 7.45117H77.2539Z" fill="#252525"/>
</svg>
