<svg width="88" height="70" viewBox="0 0 88 70" fill="none" xmlns="http://www.w3.org/2000/svg">
<g clip-path="url(#clip0_24_68)">
<path d="M33.7246 18.063C33.4073 18.2412 33.1078 18.458 32.8335 18.7124L31.3118 20.1236L38.6265 26.7606C39.6503 27.6896 40.428 28.8719 40.8756 30.1798C41.3231 31.4877 41.4328 32.8987 41.1928 34.26L37.0023 58.0253C36.3096 61.9535 32.9144 64.8047 28.9293 64.8047C28.4523 64.8047 27.9711 64.7625 27.4993 64.6793L26.1634 64.4438L26.46 66.1255C26.8609 68.3999 28.8387 70 31.0707 70C31.3409 70 56.1258 65.6547 56.1258 65.6547C58.6753 65.2052 60.3777 62.774 59.928 60.2244L54.0798 27.0578C53.8045 25.4963 52.7584 24.1798 51.2995 23.5588L37.8568 17.8366C37.646 17.7468 37.4309 17.6742 37.2135 17.6169L36.6309 13.9712L36.233 11.4808C36.0797 10.5221 35.178 9.86933 34.2198 10.0224C33.2611 10.1755 32.6082 11.0768 32.7614 12.0355L33.1498 14.4655L33.7246 18.063Z" fill="white"/>
<path d="M18.2571 37.7956L19.218 32.3459C19.1991 32.3481 19.1808 32.3496 19.1617 32.3518C17.8983 32.5017 17.1045 33.4658 16.7829 34.3181C16.4381 35.2318 16.533 36.144 17.0306 36.6988C17.3436 37.0477 17.7443 37.407 18.2571 37.7956Z" fill="white"/>
<path d="M19.9542 41.6681L18.6912 48.8312C20.4066 48.6464 21.6132 47.4004 22.0705 46.1122C22.2956 45.478 22.843 43.3027 20.4343 41.9418C20.2698 41.849 20.11 41.7577 19.9542 41.6681Z" fill="white"/>
<path d="M21.4174 18.5271C21.1544 18.5832 20.8941 18.6613 20.6394 18.7642L7.12042 24.2276C5.62195 24.8332 4.54113 26.1679 4.26046 27.7596L0.0719463 51.5136C-0.377585 54.0631 1.3248 56.4943 3.87421 56.9438L28.1098 61.2172C28.3852 61.2657 28.6589 61.2892 28.9293 61.2892C31.1611 61.2892 33.1391 59.689 33.54 57.4148L37.7305 33.6494C38.0101 32.0639 37.4564 30.4459 36.264 29.364L25.5455 19.6385C25.3368 19.4491 25.1135 19.2818 24.8797 19.1356L25.5164 15.5249L26.1268 12.0631C26.2953 11.1071 25.657 10.1954 24.701 10.0269C23.7453 9.85779 22.8333 10.4966 22.6648 11.4527L22.0543 14.9149L21.4174 18.5271ZM22.2122 28.8628L21.9702 30.2355C23.5604 30.7024 24.4486 31.6403 24.8735 32.0892C24.9329 32.152 24.9944 32.2169 25.0239 32.2441C25.4991 32.6835 25.5281 33.4249 25.0888 33.9001C24.6494 34.3753 23.9081 34.4044 23.4328 33.965C23.3461 33.8849 23.2612 33.7952 23.1715 33.7004C22.8562 33.3674 22.3825 32.868 21.5594 32.5649L20.3886 39.2048C20.7567 39.4255 21.1547 39.6567 21.5873 39.9011C24.2058 41.3805 25.2625 44.1262 24.2793 46.8961C23.7963 48.2565 22.8618 49.4331 21.6475 50.2088C20.6273 50.8606 19.478 51.1953 18.2736 51.1991L17.9774 52.8788C17.8772 53.4474 17.3827 53.8474 16.8247 53.8474C16.7571 53.8474 16.6887 53.8415 16.6199 53.8295C15.9825 53.7171 15.5569 53.1094 15.6693 52.472L15.9499 50.8803C14.4203 50.5394 13.3186 50.0271 11.7997 48.6012C11.3278 48.1582 11.3044 47.4166 11.7475 46.9447C12.1904 46.4728 12.932 46.4495 13.4039 46.8924C14.5199 47.9401 15.2157 48.3086 16.3571 48.5717L17.8071 40.3486C16.6812 39.5968 15.8911 38.9379 15.2862 38.2636C14.2021 37.055 13.9355 35.2261 14.5903 33.4905C15.3107 31.5812 16.9567 30.253 18.8859 30.0242C19.1468 29.9933 19.3965 29.9753 19.6379 29.9662L19.9043 28.4558C20.0166 27.8184 20.6244 27.3929 21.2618 27.5052C21.8989 27.6176 22.3246 28.2254 22.2122 28.8628Z" fill="white"/>
</g>
<rect x="64" width="24" height="24" rx="12" fill="white"/>
<path d="M74.8691 11.002H75.7715C76.0605 11.002 76.2988 10.9531 76.4863 10.8555C76.6738 10.7539 76.8125 10.6133 76.9023 10.4336C76.9961 10.25 77.043 10.0371 77.043 9.79492C77.043 9.57617 77 9.38281 76.9141 9.21484C76.832 9.04297 76.7051 8.91016 76.5332 8.81641C76.3613 8.71875 76.1445 8.66992 75.8828 8.66992C75.6758 8.66992 75.4844 8.71094 75.3086 8.79297C75.1328 8.875 74.9922 8.99023 74.8867 9.13867C74.7812 9.28711 74.7285 9.4668 74.7285 9.67773H73.0352C73.0352 9.20898 73.1602 8.80078 73.4102 8.45312C73.6641 8.10547 74.0039 7.83398 74.4297 7.63867C74.8555 7.44336 75.3242 7.3457 75.8359 7.3457C76.4141 7.3457 76.9199 7.43945 77.3535 7.62695C77.7871 7.81055 78.125 8.08203 78.3672 8.44141C78.6094 8.80078 78.7305 9.24609 78.7305 9.77734C78.7305 10.0469 78.668 10.3086 78.543 10.5625C78.418 10.8125 78.2383 11.0391 78.0039 11.2422C77.7734 11.4414 77.4922 11.6016 77.1602 11.7227C76.8281 11.8398 76.4551 11.8984 76.041 11.8984H74.8691V11.002ZM74.8691 12.2852V11.4121H76.041C76.5059 11.4121 76.9141 11.4648 77.2656 11.5703C77.6172 11.6758 77.9121 11.8281 78.1504 12.0273C78.3887 12.2227 78.5684 12.4551 78.6895 12.7246C78.8105 12.9902 78.8711 13.2852 78.8711 13.6094C78.8711 14.0078 78.7949 14.3633 78.6426 14.6758C78.4902 14.9844 78.2754 15.2461 77.998 15.4609C77.7246 15.6758 77.4043 15.8398 77.0371 15.9531C76.6699 16.0625 76.2695 16.1172 75.8359 16.1172C75.4766 16.1172 75.123 16.0684 74.7754 15.9707C74.4316 15.8691 74.1191 15.7188 73.8379 15.5195C73.5605 15.3164 73.3379 15.0625 73.1699 14.7578C73.0059 14.4492 72.9238 14.084 72.9238 13.6621H74.6172C74.6172 13.8809 74.6719 14.0762 74.7812 14.248C74.8906 14.4199 75.041 14.5547 75.2324 14.6523C75.4277 14.75 75.6445 14.7988 75.8828 14.7988C76.1523 14.7988 76.3828 14.75 76.5742 14.6523C76.7695 14.5508 76.918 14.4102 77.0195 14.2305C77.125 14.0469 77.1777 13.834 77.1777 13.5918C77.1777 13.2793 77.1211 13.0293 77.0078 12.8418C76.8945 12.6504 76.7324 12.5098 76.5215 12.4199C76.3105 12.3301 76.0605 12.2852 75.7715 12.2852H74.8691Z" fill="#252525"/>
<defs>
<clipPath id="clip0_24_68">
<rect width="60" height="60" fill="white" transform="translate(0 10)"/>
</clipPath>
</defs>
</svg>
