<svg width="88" height="70" viewBox="0 0 88 70" fill="none" xmlns="http://www.w3.org/2000/svg">
<path d="M55.185 25.4439C55.1132 23.8655 55.1132 22.3587 55.1132 20.852C55.1132 19.6323 54.1805 18.6996 52.9608 18.6996C43.9922 18.6996 37.176 16.1166 31.5078 10.5919C30.6469 9.80269 29.3554 9.80269 28.4944 10.5919C22.8262 16.1166 16.0101 18.6996 7.04148 18.6996C5.82175 18.6996 4.88901 19.6323 4.88901 20.852C4.88901 22.3587 4.88901 23.8655 4.81726 25.4439C4.53027 40.5112 4.09977 61.1749 29.2836 69.8565L30.0011 70L30.7186 69.8565C55.8307 61.1749 55.472 40.583 55.185 25.4439ZM28.2791 46.3229C27.8487 46.6816 27.3464 46.8969 26.7724 46.8969H26.7007C26.1267 46.8969 25.5527 46.6099 25.1939 46.1794L18.5213 38.7892L21.75 35.9193L26.9877 41.7309L38.611 30.6816L41.5527 33.8386L28.2791 46.3229Z" fill="white"/>
<rect x="64" width="24" height="24" rx="12" fill="white"/>
<path d="M79.1172 12.8125V14.1367H72.9707L72.8887 13.1113L76.4453 7.46875H77.7871L76.334 9.90039L74.5645 12.8125H79.1172ZM78.1504 7.46875V16H76.4629V7.46875H78.1504Z" fill="#252525"/>
</svg>
