<svg width="88" height="70" viewBox="0 0 88 70" fill="none" xmlns="http://www.w3.org/2000/svg">
<g clip-path="url(#clip0_24_67)">
<path d="M33.2643 11.9189C24.2264 11.9189 16.2273 16.4308 11.3854 23.316C12.3875 23.9697 13.3642 24.8662 14.3089 26.0187C17.9211 20.6176 23.7616 16.8282 30.5191 16.0136L33.2639 20.6584L36.0087 16.0135C46.3962 17.2653 54.6528 25.5216 55.9053 35.9089L51.2597 38.6541L55.9054 41.3994C55.0681 48.3441 51.0909 54.3231 45.4484 57.9065C45.8078 58.7258 46.0103 59.5636 46.0461 60.4273C46.0725 61.0585 46.0074 61.6548 45.8765 62.221C54.2754 57.7081 60 48.8386 60 38.6546C60 23.9122 48.0068 11.9189 33.2643 11.9189ZM40.087 55.95C33.9237 50.9968 32.2003 53.4316 29.4038 56.2277C27.4515 58.1807 22.5109 54.1024 18.2449 49.8362C13.9786 45.5694 9.90108 40.6296 11.8532 38.677C14.6499 35.8808 17.084 34.1564 12.1294 27.9948C7.17647 21.831 3.8747 26.5632 1.16578 29.2723C-1.96167 32.3987 1.00098 44.0493 12.5157 55.5658C24.032 67.0807 35.6825 70.0414 38.8081 66.9162C41.5168 64.207 46.2503 60.9056 40.087 55.95ZM21.3163 42.8387C21.3163 37.3602 27.73 36.3842 27.73 34.2464C27.73 33.209 26.8996 32.7736 26.1316 32.7736C24.7201 32.7736 23.9322 34.3503 23.9322 34.3503L21.234 32.5449C21.234 32.5449 22.6039 29.3488 26.464 29.3488C28.8921 29.3488 31.5277 30.7395 31.5277 33.8939C31.5277 38.5222 25.5505 39.4149 25.4466 41.3242H31.7564V44.4371H21.4826C21.3786 43.8561 21.3163 43.3376 21.3163 42.8387ZM33.2736 38.647L39.0025 29.5975H43.4437V37.8374H45.2076V40.8463H43.4437V44.4373H39.8527V40.8463H33.2737V38.647H33.2736ZM39.8526 37.8373V34.5166C39.8526 33.707 39.9774 32.8558 39.9774 32.8558H39.9358C39.9358 32.8558 39.6249 33.7693 39.2093 34.392L36.9684 37.7959V37.8375L39.8526 37.8373Z" fill="white"/>
</g>
<rect x="64" width="24" height="24" rx="12" fill="white"/>
<path d="M78.9766 14.6816V16H73.1406V14.875L75.9004 11.916C76.1777 11.6074 76.3965 11.3359 76.5566 11.1016C76.7168 10.8633 76.832 10.6504 76.9023 10.4629C76.9766 10.2715 77.0137 10.0898 77.0137 9.91797C77.0137 9.66016 76.9707 9.43945 76.8848 9.25586C76.7988 9.06836 76.6719 8.92383 76.5039 8.82227C76.3398 8.7207 76.1367 8.66992 75.8945 8.66992C75.6367 8.66992 75.4141 8.73242 75.2266 8.85742C75.043 8.98242 74.9023 9.15625 74.8047 9.37891C74.7109 9.60156 74.6641 9.85352 74.6641 10.1348H72.9707C72.9707 9.62695 73.0918 9.16211 73.334 8.74023C73.5762 8.31445 73.918 7.97656 74.3594 7.72656C74.8008 7.47266 75.3242 7.3457 75.9297 7.3457C76.5273 7.3457 77.0312 7.44336 77.4414 7.63867C77.8555 7.83008 78.168 8.10742 78.3789 8.4707C78.5938 8.83008 78.7012 9.25977 78.7012 9.75977C78.7012 10.041 78.6562 10.3164 78.5664 10.5859C78.4766 10.8516 78.3477 11.1172 78.1797 11.3828C78.0156 11.6445 77.8164 11.9102 77.582 12.1797C77.3477 12.4492 77.0879 12.7285 76.8027 13.0176L75.3203 14.6816H78.9766Z" fill="#252525"/>
<defs>
<clipPath id="clip0_24_67">
<rect width="60" height="60" fill="white" transform="translate(0 10)"/>
</clipPath>
</defs>
</svg>
