<svg width="120" height="120" viewBox="0 0 120 120" fill="none" xmlns="http://www.w3.org/2000/svg">
<g clip-path="url(#clip0_32_7283)">
<path d="M81.998 68.6145H39.1154C28.4049 68.6145 22.5436 56.1326 29.3843 47.891L29.7647 47.4326C32.7783 43.8019 34.4279 39.2318 34.4279 34.5134V26.2439C34.4281 11.7497 46.1778 0 60.672 0C75.1662 0 86.9159 11.7497 86.9159 26.2439V34.7925C86.9159 39.5604 88.6001 44.175 91.6714 47.8221C98.5974 56.0468 92.7507 68.6145 81.998 68.6145Z" fill="#C59191"/>
<path d="M104.54 89.8664V118.216H16.5742V90.0797C16.5742 83.7094 20.3922 77.9602 26.2609 75.4899L40.4617 69.3164L45.243 67.2375C48.8711 65.6602 51.2172 62.0813 51.2172 58.125V56.2899H69.8945V58.0313C69.8945 62.0039 72.2641 65.5969 75.918 67.1625L95.125 75.3961C100.848 77.932 104.54 83.6039 104.54 89.8664Z" fill="white"/>
<path d="M40.4606 76.0758C45.3073 77.524 52.4409 79.0685 61.1365 78.9164C69.2953 78.7739 75.9928 77.1874 80.6531 75.6989L82.9688 70.1848L75.9173 67.1625C72.2644 65.5966 69.8958 62.0048 69.8958 58.0303V56.2903H51.2184V58.125C51.2184 62.0808 48.8719 65.6595 45.2445 67.2368L39.5332 69.72L40.4606 76.0758Z" fill="#FFCEBF"/>
<path d="M95.1241 75.3949L80.6557 69.1936L80.6531 69.1938V118.216H104.54V89.8666C104.54 83.6048 100.849 77.9318 95.1241 75.3949Z" fill="#8795DE"/>
<path d="M40.4617 69.3164V118.216H16.5742V90.0797C16.5742 83.7094 20.3922 77.9602 26.2609 75.4898L40.4617 69.3164Z" fill="#8795DE"/>
<path d="M67.0312 66.5419C69.1799 66.5419 71.2274 66.1104 73.0938 65.3318C71.0917 63.4838 69.8955 60.8541 69.8955 58.0306V56.2906H51.2181V58.125C51.2181 59.554 50.9104 60.9333 50.3481 62.1872C53.1763 64.8832 57.0025 66.5417 61.2182 66.5417H67.0312V66.5419Z" fill="#FFB09E"/>
<path d="M79.2244 28.1937V43.6448C79.2244 52.3495 72.1679 59.4059 63.4634 59.4059H57.6507C48.946 59.4059 41.8896 52.3493 41.8896 43.6448V28.1937C41.8896 22.5309 46.4801 17.9402 52.1431 17.9402H68.9712C74.6339 17.9405 79.2244 22.5309 79.2244 28.1937Z" fill="#FFCEBF"/>
<path d="M79.2242 36.2327C79.2172 36.2541 79.2085 36.2747 79.2022 36.2965C78.6324 38.2641 77.1371 41.9808 73.5235 44.7673C71.8409 46.065 69.9216 47.0025 67.8193 47.5542C66.8663 47.8043 66.2963 48.7795 66.5464 49.7325C66.7569 50.5338 67.4794 51.0642 68.2709 51.0642C68.4207 51.0642 68.573 51.0452 68.7249 51.0054C71.2918 50.3318 73.6393 49.1836 75.7025 47.5929C77.1273 46.4941 78.2804 45.2806 79.2139 44.0604C79.2174 43.9221 79.2244 43.7845 79.2244 43.6453V36.2327H79.2242Z" fill="#7A6D79"/>
<path d="M65.8632 52.4857H61.6826C59.7797 52.4857 58.2371 50.943 58.2371 49.0402C58.2371 47.1373 59.7797 45.5946 61.6826 45.5946H65.8632C67.766 45.5946 69.3087 47.1373 69.3087 49.0402C69.3085 50.9433 67.766 52.4857 65.8632 52.4857Z" fill="#685E68"/>
<path d="M64.2814 13.8509C64.6817 8.80242 69.515 5.45203 74.1409 3.71672C81.793 8.3018 86.916 16.6739 86.916 26.2437V28.0479C86.4929 28.1367 86.072 28.2145 85.6557 28.2766C83.1074 28.6573 80.9373 28.4925 79.4546 28.2766C69.9008 27.004 63.7979 19.9481 64.2814 13.8509Z" fill="#B98080"/>
<path d="M60.6721 0C66.599 0 72.0665 1.96547 76.4599 5.2793C74.2682 9.09281 69.2357 16.6327 59.7991 22.2145C52.7936 26.3585 46.188 27.7509 42.1202 28.2766H34.4285V26.2437C34.4282 11.7497 46.1779 0 60.6721 0V0Z" fill="#C59191"/>
<path d="M90.0089 118.216H32.9024L29.7527 88.5031C29.5293 86.3956 31.1814 84.559 33.3006 84.559H89.6109C91.7301 84.559 93.3822 86.3956 93.1589 88.5031L90.0089 118.216Z" fill="#EFEDEF"/>
<path d="M89.6106 84.559H82.4749C84.5941 84.559 86.2462 86.3956 86.0228 88.5031L82.8731 118.216H90.0088L93.1586 88.5031C93.3822 86.3956 91.7301 84.559 89.6106 84.559Z" fill="#E5E1E5"/>
<path d="M113.389 120.215H6.61133C5.72123 120.215 5 119.332 5 118.242C5 117.153 5.72123 116.269 6.61133 116.269H113.389C114.279 116.269 115 117.153 115 118.242C115 119.332 114.279 120.215 113.389 120.215Z" fill="#C9BFC8"/>
<path d="M61.4557 106.383C64.2144 106.383 66.4507 104.146 66.4507 101.388C66.4507 98.6289 64.2144 96.3926 61.4557 96.3926C58.697 96.3926 56.4607 98.6289 56.4607 101.388C56.4607 104.146 58.697 106.383 61.4557 106.383Z" fill="#C9BFC8"/>
</g>
<defs>
<clipPath id="clip0_32_7283">
<rect width="120" height="120" fill="white"/>
</clipPath>
</defs>
</svg>
