<svg width="33" height="32" viewBox="0 0 33 32" fill="none" xmlns="http://www.w3.org/2000/svg">
<g clip-path="url(#clip0_31_436)">
<path d="M16.941 32.0001C25.7776 32.0001 32.941 24.8366 32.941 16C32.941 7.16346 25.7776 0 16.941 0C8.10444 0 0.940979 7.16346 0.940979 16C0.940979 24.8366 8.10444 32.0001 16.941 32.0001Z" fill="#D42428"/>
<path d="M28.2542 4.68457C34.5026 10.9335 34.5031 21.0645 28.2542 27.3135C22.0058 33.5619 11.8742 33.5622 5.62527 27.3135L28.2542 4.68457Z" fill="#CC202D"/>
<path d="M32.6972 18.7681L21.9292 8.0002L21.0606 8.86878L20.1921 8.0002L19.2401 8.95217L19.8795 9.59159L19.6708 9.80029L18.0127 8.14219L17.9419 8.21343L15.7076 5.97904L14.7556 6.93101L15.0161 7.19151L14.6336 7.57401L13.0229 5.96338L12.3552 6.63109L13.9254 10.4124L13.2183 13.3156L15.1515 15.2493L10.2618 15.5914L10.1878 24.0765L18.0564 31.9547C25.4291 31.431 31.4491 25.9165 32.6972 18.7681Z" fill="#BA202E"/>
<path d="M22.6639 19.7099H21.6316L21.6367 19.1107C21.6367 18.8441 21.8552 18.6266 22.1227 18.6266H22.1889C22.4565 18.6266 22.676 18.8442 22.676 19.1107L22.6639 19.7099ZM18.7936 18.4257C18.5327 18.4257 18.3184 18.6018 18.3184 18.817V21.7313C18.3184 21.9465 18.5327 22.1216 18.7936 22.1216C19.0566 22.1216 19.2709 21.9465 19.2709 21.7313V18.8168C19.2709 18.6018 19.0566 18.4257 18.7936 18.4257ZM25.0777 16.7959V22.3394C25.0777 23.6694 23.9246 24.7573 22.5146 24.7573H11.9768C10.5665 24.7573 9.41371 23.6691 9.41371 22.3394V16.7959C9.41371 15.4659 10.5666 14.3776 11.9768 14.3776H22.5149C23.9246 14.3776 25.0777 15.4662 25.0777 16.7959ZM12.6794 22.9415L12.6789 17.1019L13.9851 17.1023V16.2368L10.5029 16.2315V17.0819L11.59 17.0852V22.9412H12.6794V22.9415ZM16.5954 17.9719H15.5062V21.0901C15.5062 21.5413 15.5332 21.7669 15.5047 21.8463C15.4158 22.088 15.0176 22.3448 14.8627 21.8725C14.8365 21.7897 14.8597 21.5401 14.8592 21.1113L14.8542 17.9717H13.7711L13.7751 21.0617C13.7756 21.5355 13.7642 21.8887 13.7786 22.0494C13.8052 22.3328 13.7953 22.6635 14.0588 22.8518C14.5485 23.2052 15.4878 22.7992 15.7227 22.2947L15.7207 22.9384L16.5951 22.9397V17.9719H16.5954ZM20.0796 21.5425L20.0776 18.9471C20.0766 17.9578 19.3368 17.3653 18.3318 18.1657L18.3363 16.236L17.2482 16.2377L17.2428 22.8977L18.1375 22.8846L18.2188 22.4695C19.3626 23.5195 20.0816 22.8005 20.0796 21.5425ZM23.4888 21.1987L22.6717 21.2031C22.6717 21.2357 22.6703 21.2728 22.6697 21.3137V21.7695C22.6697 22.0133 22.4684 22.2119 22.2235 22.2119H22.0636C21.8183 22.2119 21.6169 22.0133 21.6169 21.7695V21.719V21.2172V20.5705H23.487V19.8666C23.487 19.3525 23.4737 18.8383 23.4312 18.5442C23.2976 17.6137 21.9919 17.4662 21.332 17.9424C21.1248 18.0912 20.9669 18.2903 20.8745 18.5581C20.7818 18.8257 20.7358 19.1907 20.7358 19.6552V21.2026C20.7365 23.775 23.8609 23.4114 23.4888 21.1987ZM19.2994 12.7968C19.3553 12.9337 19.4424 13.0441 19.5614 13.128C19.6779 13.2098 19.828 13.2515 20.007 13.2515C20.164 13.2515 20.3031 13.209 20.4239 13.1214C20.5449 13.0342 20.647 12.9044 20.7299 12.7306L20.7091 13.1581H21.9231V7.99499H20.9673V12.0133C20.9673 12.2306 20.7877 12.4087 20.5686 12.4087C20.3511 12.4087 20.1709 12.2306 20.1709 12.0133V7.99499H19.1737V11.4772C19.1737 11.9209 19.1815 12.2167 19.1949 12.3668C19.2092 12.5158 19.2433 12.6586 19.2994 12.7968ZM15.6205 9.88077C15.6205 9.3851 15.6619 8.99827 15.7437 8.71935C15.8261 8.44116 15.9751 8.2176 16.1899 8.04934C16.4046 7.8798 16.6796 7.7952 17.0131 7.7952C17.2937 7.7952 17.5345 7.8505 17.7359 7.95839C17.9372 8.06703 18.0936 8.20775 18.2012 8.38181C18.3119 8.55642 18.3862 8.73603 18.4263 8.91968C18.4672 9.10563 18.487 9.38685 18.487 9.76504V11.0709C18.487 11.5499 18.4678 11.9021 18.4306 12.126C18.394 12.3504 18.3147 12.5583 18.1919 12.7531C18.0706 12.9461 17.914 13.0903 17.724 13.1823C17.5325 13.2756 17.3135 13.321 17.0653 13.321C16.789 13.321 16.5555 13.2828 16.3637 13.2028C16.1712 13.1234 16.0221 13.0037 15.9163 12.8448C15.8086 12.6856 15.7336 12.4918 15.6884 12.266C15.6424 12.0399 15.6207 11.7006 15.6207 11.2479V9.88077H15.6205ZM16.5709 11.932C16.5709 12.224 16.7889 12.4627 17.0539 12.4627C17.3189 12.4627 17.5355 12.2243 17.5355 11.932V9.18321C17.5355 8.89119 17.3189 8.65244 17.0539 8.65244C16.7889 8.65244 16.5709 8.89092 16.5709 9.18321V11.932ZM13.2109 13.3197H14.3567L14.3577 9.35978L15.7111 5.96749H14.4583L13.7387 8.48762L13.0088 5.96094H11.7694L13.2092 9.36207L13.2109 13.3197Z" fill="white"/>
</g>
<defs>
<clipPath id="clip0_31_436">
<rect width="32" height="32" fill="white" transform="translate(0.940979)"/>
</clipPath>
</defs>
</svg>
